<?xml version="1.0" encoding="UTF-8"?>
<svg id="uuid-32e6cc4a-addc-460d-a4d1-27783131067a" data-name="图层 1" xmlns="http://www.w3.org/2000/svg" width="1024" height="256.84" viewBox="0 0 1024 256.84">
  <defs>
    <style>
      .uuid-437e5c4f-6f3d-486b-a41e-06dd49f80dc6 {
        fill: #bcbcbc;
      }
    </style>
  </defs>
  <path class="uuid-437e5c4f-6f3d-486b-a41e-06dd49f80dc6" d="M83.47,70.69c-3.62-14.27-9.58-28.32-29.6-28.32-16.61,0-22.36,12.32-22.36,23.57,0,14.92,9.37,22.48,27.04,31.78,25.55,13.4,36.62,23.35,36.62,43.89,0,22.7-19.38,40-46.85,40-12.78,0-23.85-3.68-32.58-7.13-1.7-6.05-4.26-20.76-5.75-32.43l6.6-1.73c4.26,14.49,13.63,33.29,35.77,33.29,15.33,0,24.7-10.81,24.7-24.86,0-16.65-8.73-23.35-27.47-33.73-22.36-12.32-34.92-22.7-34.92-42.81s15.76-37.4,43.87-37.4c11.92,0,23.64,3.24,28.11,4.11,.85,7.78,1.7,16.43,3.41,30.48l-6.6,1.3Z"/>
  <path class="uuid-437e5c4f-6f3d-486b-a41e-06dd49f80dc6" d="M165.02,107.45v-11.67h102.42v11.67h-102.42Zm0,42.16v-11.67h102.42v11.67h-102.42Z"/>
  <path class="uuid-437e5c4f-6f3d-486b-a41e-06dd49f80dc6" d="M438.22,178.36c-11.5,0-24.06,.22-28.53,.43-1.28-1.51-34.71-41.73-35.99-43.02-2.98-3.46-4.26-4.54-6.17-4.54-.85,0-2.56,0-3.83,.43v24c0,14.49,1.06,15.35,14.91,16.65v6.05h-47.06v-6.05c14.27-1.3,15.33-2.81,15.33-16.65V52.32c0-14.05-1.49-14.49-14.69-16.43v-5.62c11.07-1.08,23.85-4.32,31.51-7.35V126.04c6.39-1.51,10.43-4.11,13.63-7.57,4.9-4.97,12.78-14.7,16.4-20.11,4.47-6.27,2.77-8-7.45-8.86v-6.05l43.86-1.95v5.84c-14.91,2.38-19.16,4.11-28.32,13.84-4.05,4.32-13.63,15.35-18.1,20.97,4.26,6.05,25.98,31.13,33,38.7,10.22,10.38,13.2,11.03,21.51,11.46v6.05Z"/>
  <path class="uuid-437e5c4f-6f3d-486b-a41e-06dd49f80dc6" d="M485.49,178.36v-6.05c13.63-1.3,15.33-2.38,15.33-16.65V52.1c0-13.19-1.06-14.49-14.69-16.22v-5.62c11.5-1.3,24.7-4.76,31.51-7.35V155.66c0,14.27,1.28,15.35,15.12,16.65v6.05h-47.27Z"/>
  <path class="uuid-437e5c4f-6f3d-486b-a41e-06dd49f80dc6" d="M605.16,178.36v-6.05c12.35-1.3,13.63-2.81,13.63-17.51v-35.67c0-15.13-5.32-25.3-19.38-25.3-8.73,0-17.04,5.19-23.64,11.24v50.59c0,14.92,1.28,15.35,13.84,16.65v6.05h-46v-6.05c14.05-1.51,15.33-2.38,15.33-16.65v-44.54c0-14.05-1.49-14.7-12.99-16.65v-5.62c10.43-1.73,20.87-4.54,29.81-8.65v17.08c4.26-3.03,8.94-6.27,14.48-9.95,5.96-3.89,11.5-6.49,17.67-6.49,17.03,0,27.68,12.76,27.68,33.73v41.08c0,14.7,1.28,15.35,13.63,16.65v6.05h-44.08Z"/>
  <path class="uuid-437e5c4f-6f3d-486b-a41e-06dd49f80dc6" d="M719.29,220.31c-29.81-22.7-48.76-60.54-48.76-100.53s19.17-77.4,48.76-100.1l4.26,5.4c-20.87,20.11-35.56,55.56-35.56,94.91s15.54,75.67,35.56,94.91l-4.26,5.41Z"/>
  <path class="uuid-437e5c4f-6f3d-486b-a41e-06dd49f80dc6" d="M932.86,43.89c-14.91,2.16-17.04,3.89-22.78,21.62-7.03,21.62-24.06,76.54-35.77,115.24h-7.24c-11.07-33.73-25.34-75.45-36.41-107.45-12.35,37.19-24.91,74.16-35.99,107.45h-7.03c-10.65-37.19-22.78-77.62-34.28-115.45-5.54-17.51-7.88-19.89-21.72-21.4v-6.05h52.59v6.05c-15.76,1.73-16.18,4.11-13.2,14.92,8.3,29.19,16.82,57.94,25.55,88.43,11.71-34.38,24.49-72,35.35-107.45h6.81c11.92,36.75,23.85,70.91,36.2,107.67,8.94-28.75,21.08-67.24,25.77-86.05,3.19-12.54,1.49-15.35-16.61-17.51v-6.05h48.76v6.05Z"/>
  <path class="uuid-437e5c4f-6f3d-486b-a41e-06dd49f80dc6" d="M959.48,19.67c29.81,22.92,48.76,60.54,48.76,100.53s-19.17,77.4-48.76,100.1l-4.47-5.41c20.65-19.67,35.77-55.56,35.77-94.7s-15.12-75.67-35.77-95.13l4.47-5.4Z"/>
</svg>