<?xml version="1.0" encoding="UTF-8"?>
<svg id="uuid-94110f5e-a055-49d0-b8db-3c35c4ecca7c" data-name="图层 1" xmlns="http://www.w3.org/2000/svg" width="1018.76" height="93.48" viewBox="0 0 1018.76 93.48">
  <defs>
    <style>
      .uuid-f3c76cf5-0054-431b-8395-7061b16a2489 {
        fill: gray;
        stroke: gray;
        stroke-miterlimit: 10;
        stroke-width: 2px;
      }
    </style>
  </defs>
  <path class="uuid-f3c76cf5-0054-431b-8395-7061b16a2489" d="M8.85,30.72v-2.08c0-5.54,1.92-11.24,6.78-15.4,2.69-2.39,5.62-3.7,8.62-4.08,2.62,.08,5,1,6.24,2.46,.69,.85,.85,1.62,.46,2.69-.23,.77-1.08,1.85-1.85,2.46-.85,.54-1.46,.38-2.23-.15-1.54-1.39-3.7-3.16-6.24-3.16-5.7,0-5.7,7.78-5.7,13.63v3.62h8.16c.46,.69,.08,2.62-.77,3.16h-7.39v22.25c0,5.54,.85,5.62,6.62,6.24v2.16H3.46v-2.16c4.85-.46,5.39-.77,5.39-5.77v-22.71H3.39l-.31-.85,1.69-2.31h4.08Z"/>
  <path class="uuid-f3c76cf5-0054-431b-8395-7061b16a2489" d="M40.88,28.57l4,10.47-1.85,.85-6.16-9.62-9.09,6.7-1.31-1.69,7.47-7.85-8.78-7.31,1.08-1.77,9.93,5.54,3.62-10.55,2,.31-1.23,10.93,10.32-.69,.15,2.08-10.16,2.62Z"/>
  <path class="uuid-f3c76cf5-0054-431b-8395-7061b16a2489" d="M74.84,39.27v-4.16h37.04v4.16h-37.04Zm0,15.01v-4.16h37.04v4.16h-37.04Z"/>
  <path class="uuid-f3c76cf5-0054-431b-8395-7061b16a2489" d="M157,79.46c-10.78-8.08-17.63-21.56-17.63-35.8s6.93-27.56,17.63-35.65l1.54,1.93c-7.55,7.16-12.86,19.79-12.86,33.8s5.62,26.95,12.86,33.8l-1.54,1.92Z"/>
  <path class="uuid-f3c76cf5-0054-431b-8395-7061b16a2489" d="M180.25,30.57c1.31-.54,2.46-.77,3.39-.77,8.24,0,15.17,7.16,15.17,16.32,0,10.39-8.93,19.4-19.02,19.33-3.31,0-7.62-.77-11.86-2.77V19.41c0-4.77-.23-5.24-5.16-5.62v-2c3.62-.46,8.39-1.62,11.24-2.62v24.1l6.24-2.69Zm-6.24,25.02c0,1.23,.08,1.92,.38,2.69,.92,1.93,3.93,4.16,7.62,4.16,6.62,0,9.93-5.7,9.93-14.4s-5.31-13.94-11.7-13.94c-2.23,0-4.77,.69-6.24,1.46v20.02Z"/>
  <path class="uuid-f3c76cf5-0054-431b-8395-7061b16a2489" d="M203.58,32.34c3.62-.54,7.62-1.85,11.16-3.31v6.16c.23-.15,6.39-3.7,6.7-3.85,1.85-1,3.46-1.54,4.47-1.54,8.47,0,13.63,7.08,13.63,14.71,0,11.7-9.24,19.1-19.33,20.94-2.31-.08-4.39-.77-5.47-1.39v10.39c0,5.7,.62,6.16,6.54,6.7v2.16h-18.25v-2.16c5-.54,5.62-.92,5.62-6.08V40.04c0-4.62-.15-4.93-5.08-5.62v-2.08Zm11.16,26.33c1.77,1.77,4.77,3,7.31,3,6.7,0,11.01-5.62,11.01-14.24s-4.85-13.01-10.32-13.01c-2.69,0-5.93,1.77-8.01,3.31v20.94Z"/>
  <path class="uuid-f3c76cf5-0054-431b-8395-7061b16a2489" d="M282.12,49.43h-17.71l.54-4.7h17.71l-.54,4.7Z"/>
  <path class="uuid-f3c76cf5-0054-431b-8395-7061b16a2489" d="M325.78,83.31v-2.16c6.08-.54,6.47-.92,6.47-6.39v-12.55l-8.24,3.23c-11.32,0-16.71-9.09-16.71-16.55,0-11.24,10.01-19.17,20.71-19.09,2.62,.23,4.54,.62,5.54,1,1,.31,1.39,.38,2.08,.38,.46-.08,1.46-.31,2.62-.85l.31,.23c-.08,1.62-.23,3.16-.23,8.24v36.11c0,5.31,.54,5.62,5.93,6.24v2.16h-18.48Zm6.47-47.12c-1.69-2.08-5.08-3.23-7.62-3.23-5.31,0-10.63,4.47-10.63,13.55,0,10.09,6.39,14.63,12.47,14.63,2.46,0,4.31-.62,5.77-1.31v-23.64Z"/>
  <path class="uuid-f3c76cf5-0054-431b-8395-7061b16a2489" d="M352.57,8.01c10.78,8.16,17.63,21.56,17.63,35.8s-6.93,27.56-17.63,35.65l-1.62-1.92c7.47-7.01,12.94-19.79,12.94-33.72s-5.47-26.95-12.94-33.88l1.62-1.93Z"/>
  <path class="uuid-f3c76cf5-0054-431b-8395-7061b16a2489" d="M382.14,69.45h-4.23l20.56-56.44h4.39l-20.71,56.44Z"/>
  <path class="uuid-f3c76cf5-0054-431b-8395-7061b16a2489" d="M423.41,30.57c1.31-.54,2.46-.77,3.39-.77,8.24,0,15.17,7.16,15.17,16.32,0,10.39-8.93,19.4-19.02,19.33-3.31,0-7.62-.77-11.86-2.77V19.41c0-4.77-.23-5.24-5.16-5.62v-2c3.62-.46,8.39-1.62,11.24-2.62v24.1l6.24-2.69Zm-6.24,25.02c0,1.23,.08,1.92,.38,2.69,.92,1.93,3.93,4.16,7.62,4.16,6.62,0,9.93-5.7,9.93-14.4s-5.31-13.94-11.7-13.94c-2.23,0-4.77,.69-6.24,1.46v20.02Z"/>
  <path class="uuid-f3c76cf5-0054-431b-8395-7061b16a2489" d="M466.68,39.27v-4.16h37.04v4.16h-37.04Zm0,15.01v-4.16h37.04v4.16h-37.04Z"/>
  <path class="uuid-f3c76cf5-0054-431b-8395-7061b16a2489" d="M533.83,78.08V9.32h13.86v2.62l-2.16,.15c-6.24,.31-6.47,.38-6.47,4.31v54.67c0,3.85,.31,3.93,6.54,4.23l2.08,.15v2.62h-13.86Z"/>
  <path class="uuid-f3c76cf5-0054-431b-8395-7061b16a2489" d="M553,32.34c3.62-.54,7.62-1.85,11.17-3.31v6.16c.23-.15,6.39-3.7,6.7-3.85,1.85-1,3.46-1.54,4.47-1.54,8.47,0,13.63,7.08,13.63,14.71,0,11.7-9.24,19.1-19.33,20.94-2.31-.08-4.39-.77-5.47-1.39v10.39c0,5.7,.62,6.16,6.54,6.7v2.16h-18.25v-2.16c5-.54,5.62-.92,5.62-6.08V40.04c0-4.62-.15-4.93-5.08-5.62v-2.08Zm11.17,26.33c1.77,1.77,4.77,3,7.31,3,6.7,0,11.01-5.62,11.01-14.24s-4.85-13.01-10.32-13.01c-2.69,0-5.93,1.77-8.01,3.31v20.94Z"/>
  <path class="uuid-f3c76cf5-0054-431b-8395-7061b16a2489" d="M615.45,79.46c-10.78-8.08-17.63-21.56-17.63-35.8s6.93-27.56,17.63-35.65l1.54,1.93c-7.55,7.16-12.86,19.79-12.86,33.8s5.62,26.95,12.86,33.8l-1.54,1.92Z"/>
  <path class="uuid-f3c76cf5-0054-431b-8395-7061b16a2489" d="M638.7,30.57c1.31-.54,2.46-.77,3.39-.77,8.24,0,15.17,7.16,15.17,16.32,0,10.39-8.93,19.4-19.02,19.33-3.31,0-7.62-.77-11.86-2.77V19.41c0-4.77-.23-5.24-5.16-5.62v-2c3.62-.46,8.39-1.62,11.24-2.62v24.1l6.24-2.69Zm-6.24,25.02c0,1.23,.08,1.92,.38,2.69,.92,1.93,3.93,4.16,7.62,4.16,6.62,0,9.93-5.7,9.93-14.4s-5.31-13.94-11.7-13.94c-2.23,0-4.77,.69-6.24,1.46v20.02Z"/>
  <path class="uuid-f3c76cf5-0054-431b-8395-7061b16a2489" d="M702.84,46.89v17.63h-4.62v-17.63h-16.25v-4.23h16.25V26.64h4.62v16.02h16.17v4.23h-16.17Z"/>
  <path class="uuid-f3c76cf5-0054-431b-8395-7061b16a2489" d="M747.81,64.52v-2.16c8.55-.54,9.01-.92,9.01-6.7V26.1c0-3.93-.54-4.08-3.93-4.39l-3.77-.39v-1.92c5.08-.85,10.16-2.08,14.09-3.77V55.67c0,5.85,.46,6.16,9.08,6.7v2.16h-24.48Z"/>
  <path class="uuid-f3c76cf5-0054-431b-8395-7061b16a2489" d="M782.84,8.01c10.78,8.16,17.63,21.56,17.63,35.8s-6.93,27.56-17.63,35.65l-1.62-1.92c7.47-7.01,12.93-19.79,12.93-33.72s-5.47-26.95-12.93-33.88l1.62-1.93Z"/>
  <path class="uuid-f3c76cf5-0054-431b-8395-7061b16a2489" d="M845.59,49.43h-17.71l.54-4.7h17.71l-.54,4.7Z"/>
  <path class="uuid-f3c76cf5-0054-431b-8395-7061b16a2489" d="M874.85,64.52v-2.16c8.55-.54,9.01-.92,9.01-6.7V26.1c0-3.93-.54-4.08-3.93-4.39l-3.77-.39v-1.92c5.08-.85,10.16-2.08,14.09-3.77V55.67c0,5.85,.46,6.16,9.08,6.7v2.16h-24.48Z"/>
  <path class="uuid-f3c76cf5-0054-431b-8395-7061b16a2489" d="M922.51,9.32V78.08h-13.86v-2.62l2.16-.15c6.24-.31,6.47-.38,6.47-4.31V16.33c0-3.85-.23-3.93-6.47-4.23l-2.16-.15v-2.62h13.86Z"/>
  <path class="uuid-f3c76cf5-0054-431b-8395-7061b16a2489" d="M937.07,69.45h-4.23l20.56-56.44h4.39l-20.71,56.44Z"/>
  <path class="uuid-f3c76cf5-0054-431b-8395-7061b16a2489" d="M996.28,30.57c1.31-.54,2.46-.77,3.39-.77,8.24,0,15.17,7.16,15.17,16.32,0,10.39-8.93,19.4-19.02,19.33-3.31,0-7.62-.77-11.86-2.77V19.41c0-4.77-.23-5.24-5.16-5.62v-2c3.62-.46,8.39-1.62,11.24-2.62v24.1l6.24-2.69Zm-6.24,25.02c0,1.23,.08,1.92,.38,2.69,.92,1.93,3.93,4.16,7.62,4.16,6.62,0,9.93-5.7,9.93-14.4s-5.31-13.94-11.7-13.94c-2.23,0-4.77,.69-6.24,1.46v20.02Z"/>
</svg>