<?xml version="1.0" encoding="UTF-8"?>
<svg id="uuid-dae6d6f5-767d-443e-aaf6-d79bdc3632e3" data-name="图层 1" xmlns="http://www.w3.org/2000/svg" width="992.44" height="177.97" viewBox="0 0 992.44 177.97">
  <defs>
    <style>
      .uuid-9d610115-9921-4149-971a-703fb0ac1dc1 {
        fill: gray;
        stroke: gray;
        stroke-miterlimit: 10;
      }
    </style>
  </defs>
  <g>
    <path class="uuid-9d610115-9921-4149-971a-703fb0ac1dc1" d="M29.39,98.49h13.91c2.38-10.03,5.05-17.31,8.03-21.81s6.78-8.12,11.42-10.85c4.64-2.73,9.06-4.09,13.26-4.09,2.22,0,3.96,.44,5.23,1.3,1.27,.87,1.9,2.02,1.9,3.44,0,2.61-1.66,3.91-4.99,3.91-1.82,0-4.08-.39-6.78-1.19-1.35-.39-2.62-.59-3.81-.59-3.33,0-6.03,1.8-8.09,5.39-2.06,3.6-3.61,7.65-4.64,12.15l-2.85,12.33h15.34l-.95,4.15h-15.46l-9.16,36.86c-2.85,11.3-7.41,19.83-13.67,25.6-6.26,5.77-13,8.65-20.21,8.65-2.3,0-4.1-.46-5.41-1.36-1.31-.91-1.96-2.12-1.96-3.62,0-1.11,.46-2.04,1.37-2.79,.91-.75,2.16-1.13,3.75-1.13,.48,0,1.03,.04,1.66,.12,3.01,.47,6.22,.71,9.63,.71,2.69,0,4.8-.38,6.3-1.13,1.5-.75,2.79-2.23,3.86-4.44,1.07-2.21,2.2-5.65,3.39-10.31l11.89-47.17h-13.91l.95-4.15Z"/>
    <path class="uuid-9d610115-9921-4149-971a-703fb0ac1dc1" d="M132.13,61.75c.79,0,1.19,.44,1.19,1.3,0,.55-.67,1.15-2.02,1.78-2.85,1.11-7.67,5.16-14.45,12.15s-12.37,16.12-16.77,27.38c-4.4,11.26-6.6,22.54-6.6,33.84,0,7.74,.95,14.42,2.85,20.03,1.9,5.61,3.65,9.84,5.23,12.68,.4,.63,.59,1.19,.59,1.66,0,.63-.32,.95-.95,.95-.95,0-2.58-2.04-4.88-6.1-2.3-4.07-4.3-9.29-6-15.65-1.71-6.36-2.56-12.54-2.56-18.55,0-13.2,3.33-25.74,9.99-37.63,6.66-11.89,13.59-20.51,20.81-25.84,7.21-5.33,11.73-8,13.56-8Z"/>
    <path class="uuid-9d610115-9921-4149-971a-703fb0ac1dc1" d="M177.31,109.99c-8.64,6.24-12.96,12.33-12.96,18.25,0,2.45,.61,4.27,1.84,5.45,1.23,1.19,3.7,1.78,7.43,1.78l7.61-.47c4.6,0,8.36,1.3,11.3,3.91,2.93,2.61,4.4,5.79,4.4,9.54s-1.35,6.87-4.04,9.36c-2.7,2.49-5.91,3.73-9.63,3.73-2.54,0-4.72-.65-6.54-1.96-1.82-1.3-2.73-2.45-2.73-3.44s.34-1.66,1.01-2.01c.67-.36,2.1-.38,4.28-.06,2.18,.31,4.24,.47,6.18,.47s3.39-.28,4.34-.83c.95-.55,1.43-1.58,1.43-3.08,0-4.35-4.2-6.52-12.6-6.52l-8.44,.36c-6.11,0-10.58-1.13-13.44-3.38-2.85-2.25-4.28-5.71-4.28-10.37,0-3.32,1.27-6.87,3.81-10.67,2.54-3.79,6.26-7.39,11.18-10.79-7.77-2.61-11.65-6.52-11.65-11.73,0-4.58,2.93-10.43,8.8-17.54-3.65-.55-6.42-1.68-8.32-3.38-1.9-1.7-2.85-3.77-2.85-6.22s1.27-4.68,3.81-6.7c2.54-2.02,4.99-3.02,7.37-3.02,2.62,0,3.92,.63,3.92,1.9,0,.47-.24,.91-.71,1.3-3.25,2.69-4.88,5.08-4.88,7.17s1.66,3.14,4.99,3.14c.71,0,1.47-.04,2.26-.12,4.04-3.79,7.87-6.42,11.47-7.88,3.61-1.46,6.68-2.19,9.22-2.19,1.11,0,2,.26,2.68,.77,.67,.51,1.01,1.21,1.01,2.07,0,2.06-1.72,4.25-5.17,6.58-3.45,2.33-8.62,4.29-15.52,5.87-5.47,5.61-8.2,11.02-8.2,16.24,0,2.53,.73,4.64,2.2,6.34,1.47,1.7,3.55,2.67,6.24,2.9,3.88-2.13,6.82-3.42,8.8-3.85,1.98-.43,3.86-.65,5.65-.65s3.01,.3,3.69,.89c.67,.59,1.01,1.32,1.01,2.19,0,1.74-1.35,3.3-4.04,4.68-2.7,1.38-5.87,2.07-9.51,2.07-.79,0-1.59-.04-2.38-.12Z"/>
    <path class="uuid-9d610115-9921-4149-971a-703fb0ac1dc1" d="M249.02,61.75c.95,0,2.58,2.01,4.88,6.04,2.3,4.03,4.3,9.13,6,15.29,1.7,6.16,2.56,12.68,2.56,19.56,0,7.59-1.03,14.56-3.09,20.92-2.06,6.36-4.76,12.5-8.09,18.43-3.33,5.93-7.15,11.26-11.47,16-4.32,4.74-8.72,8.51-13.2,11.32-4.48,2.8-7.31,4.21-8.5,4.21-.79,0-1.19-.4-1.19-1.19,0-.71,.71-1.34,2.14-1.9,2.78-1.19,7.71-5.45,14.8-12.8,7.09-7.35,12.68-16.61,16.77-27.8,4.08-11.18,6.12-22.14,6.12-32.89,0-7.27-.93-13.83-2.79-19.68-1.86-5.85-3.63-10.15-5.29-12.92-.4-.71-.59-1.3-.59-1.78,0-.55,.32-.83,.95-.83Z"/>
    <path class="uuid-9d610115-9921-4149-971a-703fb0ac1dc1" d="M361.98,96.24v6.52h-51.37v-6.52h51.37Zm0,19.79v6.52h-51.37v-6.52h51.37Z"/>
    <path class="uuid-9d610115-9921-4149-971a-703fb0ac1dc1" d="M481.12,64c0,1.66-.54,3.1-1.6,4.33-1.07,1.23-2.38,1.84-3.92,1.84s-2.93-.57-4.16-1.72c-1.23-1.14-1.84-2.55-1.84-4.21l.36-2.01c0-.95-.64-1.42-1.9-1.42s-2.76,.47-4.46,1.42c-1.71,.95-3.23,2.49-4.58,4.62-1.35,2.13-2.4,4.7-3.15,7.7-.75,3-1.65,9.25-2.68,18.73-.87,7.27-1.51,14.38-1.9,21.33-.64,11.85-2.26,20.72-4.88,26.61-2.62,5.89-6.18,10.59-10.7,14.1-4.52,3.52-8.88,5.27-13.08,5.27-2.78,0-5.04-.73-6.78-2.19-1.74-1.46-2.62-3.12-2.62-4.98s.57-3.38,1.72-4.56c1.15-1.19,2.46-1.78,3.92-1.78s2.71,.49,3.75,1.48c1.03,.99,1.55,2.23,1.55,3.73l-.24,1.9c0,.95,1.27,1.42,3.81,1.42,3.88,0,6.8-2.57,8.74-7.7,1.94-5.14,3.15-11.65,3.63-19.56,.95-16.91,2.34-29.75,4.16-38.52,1.82-8.77,4.42-15.49,7.79-20.15,3.37-4.66,6.54-8,9.51-10.02,2.97-2.02,6.22-3.02,9.75-3.02s6.04,.73,7.55,2.19c1.5,1.46,2.26,3.18,2.26,5.16Z"/>
    <path class="uuid-9d610115-9921-4149-971a-703fb0ac1dc1" d="M545.45,98.49h13.91c2.38-10.03,5.05-17.31,8.03-21.81s6.78-8.12,11.42-10.85c4.64-2.73,9.06-4.09,13.26-4.09,2.22,0,3.96,.44,5.23,1.3,1.27,.87,1.9,2.02,1.9,3.44,0,2.61-1.67,3.91-4.99,3.91-1.82,0-4.08-.39-6.78-1.19-1.35-.39-2.62-.59-3.81-.59-3.33,0-6.03,1.8-8.09,5.39-2.06,3.6-3.61,7.65-4.64,12.15l-2.85,12.33h15.34l-.95,4.15h-15.46l-9.16,36.86c-2.85,11.3-7.41,19.83-13.67,25.6-6.26,5.77-13,8.65-20.21,8.65-2.3,0-4.1-.46-5.41-1.36-1.31-.91-1.96-2.12-1.96-3.62,0-1.11,.46-2.04,1.37-2.79,.91-.75,2.16-1.13,3.75-1.13,.48,0,1.03,.04,1.67,.12,3.01,.47,6.22,.71,9.63,.71,2.69,0,4.79-.38,6.3-1.13,1.5-.75,2.79-2.23,3.87-4.44,1.07-2.21,2.2-5.65,3.39-10.31l11.89-47.17h-13.91l.95-4.15Z"/>
    <path class="uuid-9d610115-9921-4149-971a-703fb0ac1dc1" d="M619.17,61.75c.79,0,1.19,.44,1.19,1.3,0,.55-.67,1.15-2.02,1.78-2.85,1.11-7.67,5.16-14.45,12.15-6.78,6.99-12.37,16.12-16.77,27.38s-6.6,22.54-6.6,33.84c0,7.74,.95,14.42,2.85,20.03,1.9,5.61,3.65,9.84,5.23,12.68,.4,.63,.59,1.19,.59,1.66,0,.63-.32,.95-.95,.95-.95,0-2.58-2.04-4.88-6.1-2.3-4.07-4.3-9.29-6-15.65-1.71-6.36-2.56-12.54-2.56-18.55,0-13.2,3.33-25.74,9.99-37.63,6.66-11.89,13.59-20.51,20.81-25.84,7.21-5.33,11.73-8,13.56-8Z"/>
    <path class="uuid-9d610115-9921-4149-971a-703fb0ac1dc1" d="M619.17,106.31l-1.67-2.37c3.41-2.92,6.5-5.19,9.27-6.82,2.77-1.62,4.8-2.43,6.06-2.43,1.98,0,3.47,1.46,4.46,4.39,.99,2.92,1.92,6.72,2.79,11.38,4.76-6.95,9-11.77,12.72-14.46,3.72-2.69,6.82-4.03,9.27-4.03,1.19,0,2.18,.36,2.97,1.07,.79,.71,1.19,1.66,1.19,2.84,0,1.5-.65,2.53-1.96,3.08-1.31,.55-3.27,.87-5.89,.95-5.63,0-11.42,5.06-17.36,15.17l3.69,17.31c2.22,10.83,4.82,18.06,7.79,21.69,2.97,3.63,5.73,5.45,8.26,5.45s4.28-1.54,5.47-4.62c.79-1.98,1.94-2.96,3.45-2.96,.71,0,1.41,.3,2.08,.89,.67,.59,1.01,1.4,1.01,2.43,0,1.82-1.03,3.54-3.09,5.16-2.06,1.62-4.8,2.43-8.21,2.43-5.95,0-11.14-2.63-15.58-7.88-4.44-5.26-8.09-15.71-10.94-31.35-6.5,9.56-11.26,15.55-14.27,17.96-3.01,2.41-5.79,3.62-8.32,3.62-1.67,0-3.09-.53-4.28-1.6-1.19-1.07-1.78-2.23-1.78-3.5,0-.87,.38-1.74,1.13-2.61,.75-.87,1.53-1.3,2.32-1.3,1.19,0,2.3,.67,3.33,2.02,.95,1.19,1.82,1.78,2.62,1.78,1.27,0,2.99-1.16,5.17-3.5,2.18-2.33,4.1-4.68,5.77-7.05l7.25-10.55-2.38-10.79c-1.03-4.66-2.34-6.99-3.92-6.99-1.43,0-4.24,1.74-8.44,5.22Z"/>
    <path class="uuid-9d610115-9921-4149-971a-703fb0ac1dc1" d="M696.11,61.75c.95,0,2.58,2.01,4.88,6.04,2.3,4.03,4.3,9.13,6,15.29,1.7,6.16,2.56,12.68,2.56,19.56,0,7.59-1.03,14.56-3.09,20.92-2.06,6.36-4.76,12.5-8.09,18.43-3.33,5.93-7.16,11.26-11.47,16-4.32,4.74-8.72,8.51-13.2,11.32-4.48,2.8-7.31,4.21-8.5,4.21-.79,0-1.19-.4-1.19-1.19,0-.71,.71-1.34,2.14-1.9,2.78-1.19,7.71-5.45,14.8-12.8,7.09-7.35,12.68-16.61,16.77-27.8,4.08-11.18,6.12-22.14,6.12-32.89,0-7.27-.93-13.83-2.79-19.68-1.86-5.85-3.63-10.15-5.29-12.92-.4-.71-.59-1.3-.59-1.78,0-.55,.32-.83,.95-.83Z"/>
    <path class="uuid-9d610115-9921-4149-971a-703fb0ac1dc1" d="M753.3,129.07l1.9,2.49c-9.51,9.01-17.64,13.51-24.38,13.51-5.71,0-8.56-3.91-8.56-11.73,0-8.61,2.77-17.21,8.32-25.78,5.55-8.57,12.09-12.86,19.62-12.86,2.77,0,4.88,.77,6.3,2.31s2.14,3.34,2.14,5.39c0,3.4-1.65,6.72-4.94,9.96-3.29,3.24-10.45,7.23-21.46,11.97-.32,2.06-.48,3.99-.48,5.81,0,3.16,.46,5.2,1.37,6.1,.91,.91,2.2,1.36,3.87,1.36s3.78-.61,6.12-1.84c2.34-1.22,5.73-3.46,10.17-6.7Zm-20.33-8.42c11.57-5.37,17.36-10.63,17.36-15.76,0-1.34-.44-2.57-1.31-3.67-.87-1.11-2.02-1.66-3.45-1.66-5.71,0-9.91,7.03-12.6,21.1Z"/>
    <path class="uuid-9d610115-9921-4149-971a-703fb0ac1dc1" d="M924.05,131.32l1.67,2.13c-6.26,5.29-10.74,8.55-13.44,9.78-2.7,1.22-4.84,1.84-6.42,1.84-2.06,0-3.09-.91-3.09-2.73,0-.63,.2-1.62,.59-2.96l2.02-7.11c-3.96,4.27-7.55,7.47-10.76,9.6-3.21,2.13-6.28,3.2-9.21,3.2-2.22,0-3.98-.93-5.29-2.79-1.31-1.86-1.96-4.44-1.96-7.76,0-5.14,1.74-11.18,5.23-18.14,3.49-6.95,7.57-12.29,12.25-16,4.68-3.71,9.31-5.57,13.91-5.57,1.11,0,2.26,.08,3.45,.24,1.67-7.11,3.37-12.54,5.11-16.3,1.74-3.75,4.02-6.87,6.84-9.36,2.81-2.49,5.89-4.39,9.22-5.69,3.33-1.3,6.18-1.96,8.56-1.96,3.64,0,5.47,1.46,5.47,4.39,0,2.69-1.78,4.03-5.35,4.03-1.35,0-2.93-.2-4.76-.59-1.9-.39-3.45-.59-4.64-.59-2.85,0-4.84,1.13-5.95,3.38-1.11,2.25-2.97,8.87-5.59,19.85l-8.21,34.97c-.95,4.11-1.43,6.84-1.43,8.18,0,1.5,.59,2.25,1.78,2.25,1.27,0,4.6-2.09,9.99-6.28Zm-12.37-29.87c-2.78-.71-4.96-1.07-6.54-1.07-5.31,0-9.67,3.67-13.08,11.02-3.41,7.35-5.11,13.67-5.11,18.96,0,2.06,.48,3.69,1.43,4.92,.95,1.23,2.22,1.84,3.8,1.84,2.14,0,4.52-1.11,7.13-3.32,2.62-2.21,4.52-4.58,5.71-7.11,1.19-2.53,2.54-7.07,4.04-13.63l2.62-11.62Z"/>
    <path class="uuid-9d610115-9921-4149-971a-703fb0ac1dc1" d="M938.32,106.31l-1.67-2.37c3.41-2.92,6.5-5.19,9.27-6.82,2.77-1.62,4.8-2.43,6.06-2.43,1.98,0,3.47,1.46,4.46,4.39,.99,2.92,1.92,6.72,2.79,11.38,4.76-6.95,9-11.77,12.72-14.46,3.72-2.69,6.82-4.03,9.27-4.03,1.19,0,2.18,.36,2.97,1.07,.79,.71,1.19,1.66,1.19,2.84,0,1.5-.65,2.53-1.96,3.08-1.31,.55-3.27,.87-5.89,.95-5.63,0-11.42,5.06-17.36,15.17l3.69,17.31c2.22,10.83,4.82,18.06,7.79,21.69,2.97,3.63,5.73,5.45,8.26,5.45s4.28-1.54,5.47-4.62c.79-1.98,1.94-2.96,3.45-2.96,.71,0,1.41,.3,2.08,.89,.67,.59,1.01,1.4,1.01,2.43,0,1.82-1.03,3.54-3.09,5.16-2.06,1.62-4.8,2.43-8.21,2.43-5.95,0-11.14-2.63-15.58-7.88-4.44-5.26-8.09-15.71-10.94-31.35-6.5,9.56-11.26,15.55-14.27,17.96-3.01,2.41-5.79,3.62-8.32,3.62-1.67,0-3.09-.53-4.28-1.6-1.19-1.07-1.78-2.23-1.78-3.5,0-.87,.38-1.74,1.13-2.61,.75-.87,1.53-1.3,2.32-1.3,1.19,0,2.3,.67,3.33,2.02,.95,1.19,1.82,1.78,2.62,1.78,1.27,0,2.99-1.16,5.17-3.5,2.18-2.33,4.1-4.68,5.77-7.05l7.25-10.55-2.38-10.79c-1.03-4.66-2.34-6.99-3.92-6.99-1.43,0-4.24,1.74-8.44,5.22Z"/>
  </g>
  <g>
    <path class="uuid-9d610115-9921-4149-971a-703fb0ac1dc1" d="M475.91,155.15h-17.64v-1.01h17.64v1.01Z"/>
    <path class="uuid-9d610115-9921-4149-971a-703fb0ac1dc1" d="M511.55,161.27c-2.99,0-5.29-1.3-8.21-5.51-2.12,3.42-4.75,5.58-8.57,5.58-4.68,0-7.45-3.06-7.45-6.48,0-4,2.95-6.59,7.49-6.59,3.1,0,5.69,1.55,8.46,5.47,2.88-4.43,4.93-5.87,8.28-5.87,4.39,0,7.56,2.81,7.56,6.91,0,3.56-3.17,6.48-7.56,6.48Zm-16.74-11.88c-3.85,0-6.41,1.98-6.41,5.62,0,2.66,2.3,5.26,6.41,5.26,3.2,0,5.29-1.3,7.85-5.51-2.81-4-5.11-5.36-7.85-5.36Zm16.77-.43c-3.24,0-4.82,1.04-7.63,5.76,2.74,3.85,4.64,5.47,7.59,5.47,3.82,0,6.51-2.56,6.51-5.15,0-3.78-2.48-6.08-6.48-6.08Z"/>
  </g>
  <path class="uuid-9d610115-9921-4149-971a-703fb0ac1dc1" d="M510.83,68.98c-2.99,0-5.29-1.3-8.21-5.51-2.12,3.42-4.75,5.58-8.57,5.58-4.68,0-7.45-3.06-7.45-6.48,0-4,2.95-6.59,7.49-6.59,3.1,0,5.69,1.55,8.46,5.47,2.88-4.43,4.93-5.87,8.28-5.87,4.39,0,7.56,2.81,7.56,6.91,0,3.56-3.17,6.48-7.56,6.48Zm-16.74-11.88c-3.85,0-6.41,1.98-6.41,5.62,0,2.66,2.3,5.25,6.41,5.25,3.2,0,5.29-1.29,7.85-5.51-2.81-4-5.11-5.36-7.85-5.36Zm16.77-.43c-3.24,0-4.82,1.04-7.63,5.76,2.74,3.85,4.64,5.47,7.6,5.47,3.82,0,6.51-2.56,6.51-5.15,0-3.78-2.48-6.08-6.48-6.08Z"/>
  <path class="uuid-9d610115-9921-4149-971a-703fb0ac1dc1" d="M44.72,51.76l14.19-30.89h1.94l14.19,30.89h-3.31l-11.95-26.5-12.03,26.5h-3.02Z"/>
  <g>
    <path class="uuid-9d610115-9921-4149-971a-703fb0ac1dc1" d="M765.93,64.46h8.6v1.69h-8.6v-1.69Z"/>
    <path class="uuid-9d610115-9921-4149-971a-703fb0ac1dc1" d="M791.85,69.13c-.4,1.12-.68,2.23-1.12,3.92h-12.63v-.58c1.98-1.98,4-4,5.72-6.05,1.87-2.16,4.82-4.97,4.82-8.57,0-3.28-1.69-5-4.54-5s-4.21,2.16-5,3.35l-.54-.43,1.94-2.7c.97-1.01,2.59-1.91,4.5-1.91,2.84,0,5.58,2.02,5.58,5.51,0,3.17-1.69,5.44-4.57,8.53l-5.58,6.08h7.42c1.8,0,2.34-.18,3.28-2.38l.72,.22Z"/>
    <path class="uuid-9d610115-9921-4149-971a-703fb0ac1dc1" d="M815.32,60.42c-1.04,2.66-1.22,7.42-.72,9.18,.65,2.27,1.62,2.48,3.31,1.12,1.37-1.08,1.76-.61,1.12,.4-1.48,2.2-2.99,2.7-3.96,2.41-1.15-.32-2.3-1.58-2.41-3.92-.07-1.62,.11-6.26,.4-9.18-.79,0-2.16,.04-3.35,.11-.32,7.88-.47,10.04-.61,11.01-.22,1.62-1.33,2.23-2.02,1.98-.68-.25-.83-.9-.4-1.48,1.04-1.33,1.4-2.12,1.8-5.47,.25-2.05,.32-3.89,.25-6.01-1.58,0-2.88,.65-3.78,1.66-.61,.68-1.15,.25-.9-.25,1.19-2.41,2.48-3.35,4.86-3.46,1.94-.07,5.04-.11,6.33-.14,2.41-.04,2.81-.43,3.42-1.12,.58-.65,1.12-.47,.86,.36-.83,2.66-1.04,2.88-4.21,2.81Z"/>
    <path class="uuid-9d610115-9921-4149-971a-703fb0ac1dc1" d="M830.66,72.55c2.3-.18,2.66-.65,2.66-2.74v-7.49c0-2.3-.25-2.48-2.3-2.84v-.47c1.51-.32,2.66-.72,4.03-1.44v12.24c0,2.09,.36,2.56,2.7,2.74v.5h-7.09v-.5Zm4.93-21.38c0,.76-.61,1.44-1.37,1.44s-1.37-.68-1.37-1.44c0-.86,.65-1.51,1.37-1.51,.83,0,1.37,.76,1.37,1.51Z"/>
    <path class="uuid-9d610115-9921-4149-971a-703fb0ac1dc1" d="M838.79,58.08h6.66v.5c-1.15,.18-1.66,.36-1.66,.79,0,.25,.18,.58,.54,1.01l2.56,3.56c.61-1.01,1.37-2.12,2.27-3.64,.22-.36,.32-.65,.32-.9,0-.5-.54-.68-1.62-.83v-.5h6.98v.5c-2.52,.22-3.24,.72-4.71,2.48-.61,.76-1.58,1.87-2.77,3.53l3.89,5.4c1.33,1.76,1.4,2.09,4.18,2.56v.5h-7.13v-.5c1.15-.14,1.73-.32,1.73-.79,0-.25-.14-.54-.4-.97l-3.28-4.61c-1.01,1.55-1.91,2.84-2.7,4.18-.32,.58-.47,.97-.47,1.26,0,.58,.58,.76,1.87,.94v.5h-6.77v-.5c2.7-.32,2.66-.5,4.32-2.52,1.15-1.48,2.12-2.92,3.35-4.54l-3.24-4.46c-1.15-1.62-1.76-2.2-3.92-2.45v-.5Z"/>
    <path class="uuid-9d610115-9921-4149-971a-703fb0ac1dc1" d="M877.31,76.69c-1.44,.86-2.84,1.08-3.78,.43-.72-.5-.43-1.69,.68-1.66,2.12,.07,2.88-.32,2.88-1.26,0-.76-.94-1.3-2.66-1.19-4.46,.29-5.83-.36-6.88-3.1-.68-1.84-.18-5.25,3.53-7.77-2.02-.79-2.84-2.09-2.81-3.89,.04-1.3,.61-3.35,1.98-4.93-4.14-.5-3.92-3.53-1.51-4.82,1.12-.58,1.69,.25,.9,.94-1.3,1.15-1.15,1.91,.18,2.23,.61,.14,1.15,.18,1.91,.07,1.44-1.19,3.28-2.16,4.32-2.3,1.22-.14,1.51,.54,1.01,1.3-.58,.9-3.31,2.23-5.62,2.63-1.58,1.87-1.94,3.64-1.94,4.71,0,1.55,.97,3.02,2.63,3.38,1.76-1.15,3.74-1.48,4.57-1.26,.94,.25,1.01,1.22,.04,1.58-1.55,.58-3.2,.9-4.39,.76-1.33,.68-2.74,2.48-3.42,4.28-.72,1.94,.18,4.18,3.35,4.03,4.28-.22,5.51,.43,6.23,2.52,.4,1.15-.07,2.63-1.19,3.31Z"/>
  </g>
</svg>