<?xml version="1.0" encoding="UTF-8"?>
<svg id="uuid-d8080ac9-f7a3-47fa-8b4e-fa962194255b" data-name="图层 1" xmlns="http://www.w3.org/2000/svg" width="1024.5" height="781.91" viewBox="0 0 1024.5 781.91">
  <defs>
    <style>
      .uuid-fb5cd4e7-2ae8-4f9b-9632-5a70077bb57b, .uuid-bd14e8b6-f6fd-46bd-9827-4c6cdcbb4266, .uuid-2040829c-32c1-43a1-aa88-e766d3689488, .uuid-2ada977e-5f21-4a69-b89c-74551f6a07a0, .uuid-abd09c7a-d44d-4727-b4bd-dd82571b794c {
        stroke-miterlimit: 10;
      }

      .uuid-fb5cd4e7-2ae8-4f9b-9632-5a70077bb57b, .uuid-2040829c-32c1-43a1-aa88-e766d3689488 {
        fill: #b3b3b3;
      }

      .uuid-fb5cd4e7-2ae8-4f9b-9632-5a70077bb57b, .uuid-abd09c7a-d44d-4727-b4bd-dd82571b794c {
        stroke: #b3b3b3;
      }

      .uuid-bd14e8b6-f6fd-46bd-9827-4c6cdcbb4266, .uuid-2040829c-32c1-43a1-aa88-e766d3689488 {
        stroke: gray;
      }

      .uuid-bd14e8b6-f6fd-46bd-9827-4c6cdcbb4266, .uuid-2ada977e-5f21-4a69-b89c-74551f6a07a0, .uuid-abd09c7a-d44d-4727-b4bd-dd82571b794c {
        fill: none;
        stroke-width: 2px;
      }

      .uuid-2ada977e-5f21-4a69-b89c-74551f6a07a0 {
        stroke: #ff7bac;
      }
    </style>
  </defs>
  <line class="uuid-bd14e8b6-f6fd-46bd-9827-4c6cdcbb4266" y1="751.1" x2="1020.12" y2="751.1"/>
  <line class="uuid-bd14e8b6-f6fd-46bd-9827-4c6cdcbb4266" x1="23.56" y1="774.67" x2="23.56" y2="2.36"/>
  <circle class="uuid-abd09c7a-d44d-4727-b4bd-dd82571b794c" cx="201.44" cy="590.71" r="174.83"/>
  <circle class="uuid-abd09c7a-d44d-4727-b4bd-dd82571b794c" cx="183.2" cy="572.47" r="174.83"/>
  <circle class="uuid-abd09c7a-d44d-4727-b4bd-dd82571b794c" cx="140.63" cy="522.3" r="83.62"/>
  <circle class="uuid-abd09c7a-d44d-4727-b4bd-dd82571b794c" cx="240.97" cy="642.4" r="83.62"/>
  <path class="uuid-2ada977e-5f21-4a69-b89c-74551f6a07a0" d="M70.87,706.39c-27.19-30.82-43.69-71.3-43.69-115.63,0-51.83,22.55-98.39,58.38-130.41"/>
  <path class="uuid-2ada977e-5f21-4a69-b89c-74551f6a07a0" d="M294.18,707.12c-30.58,25.2-69.15,40.23-111.08,40.23s-82.91-15.98-113.92-42.62"/>
  <path class="uuid-2ada977e-5f21-4a69-b89c-74551f6a07a0" d="M82.07,463.22c15.13-15.13,36.04-24.49,59.13-24.49,46.18,0,83.62,37.44,83.62,83.62,0,13.73-3.31,26.7-9.18,38.13-.2,.4-.41,.8-.62,1.19-.32,.61-.65,1.21-.99,1.81"/>
  <path class="uuid-2ada977e-5f21-4a69-b89c-74551f6a07a0" d="M215.01,563.13c8.34-2.79,17.26-4.3,26.53-4.3,46.18,0,83.62,37.44,83.62,83.62,0,25.65-11.55,48.6-29.73,63.94-1.54,1.3-3.12,2.54-4.75,3.72"/>
  <path class="uuid-fb5cd4e7-2ae8-4f9b-9632-5a70077bb57b" d="M14.54,766.28c0,3.83-1.45,8.48-5.17,8.48s-5.28-4.65-5.28-8.48,1.5-8.45,5.28-8.45,5.17,4.81,5.17,8.45Zm-5.17-7.82c-2.93,0-3.69,4.05-3.69,7.85s.77,7.85,3.72,7.85,3.61-4.13,3.61-7.85-.79-7.85-3.61-7.85h-.03Z"/>
  <path class="uuid-2040829c-32c1-43a1-aa88-e766d3689488" d="M22.9,2.36h1.06l7.23,12.83h-1.35L23.49,3.71h-.09l-6.38,11.49h-1.35L22.9,2.36Z"/>
  <path class="uuid-2040829c-32c1-43a1-aa88-e766d3689488" d="M1022.13,750.13v1.06l-12.83,7.23v-1.35l11.49-6.35v-.09l-11.49-6.38v-1.35l12.83,7.23Z"/>
</svg>